<svg xmlns="http://www.w3.org/2000/svg" viewBox="0 0 220 90" fill="none">
  <defs>
    <linearGradient id="gold" x1="0%" y1="0%" x2="100%" y2="0%">
      <stop offset="0%" style="stop-color:#a8860e"/>
      <stop offset="50%" style="stop-color:#c9a227"/>
      <stop offset="100%" style="stop-color:#d4af37"/>
    </linearGradient>
  </defs>
  <!-- Lion head profile - simplified silhouette -->
  <path d="M35 22 Q42 15 52 18 Q58 22 60 30 Q62 38 58 45 Q55 50 48 52 Q42 54 35 50 Q28 46 25 38 Q22 30 28 22 Z" fill="white"/>
  <ellipse cx="48" cy="32" rx="3" ry="4" fill="#0a0a0a"/>
  <path d="M30 42 Q25 45 22 50" stroke="white" stroke-width="2" fill="none"/>
  <!-- Laurel wreath -->
  <path d="M15 58 Q25 40 45 50 Q35 58 25 62 Q15 65 15 58 Z" fill="url(#gold)"/>
  <path d="M55 58 Q45 40 25 50 Q35 58 45 62 Q55 65 55 58 Z" fill="url(#gold)"/>
  <!-- ASADY LAW text -->
  <text x="75" y="55" font-family="sans-serif" font-size="22" font-weight="700" fill="white" letter-spacing="2">ASADY LAW</text>
  <line x1="75" y1="62" x2="205" y2="62" stroke="url(#gold)" stroke-width="2"/>
</svg>
